<?xml version="1.0" standalone="no"?><!DOCTYPE svg PUBLIC "-//W3C//DTD SVG 1.1//EN" "http://www.w3.org/Graphics/SVG/1.1/DTD/svg11.dtd"><svg t="1744197320058" class="icon" viewBox="0 0 1024 1024" version="1.1" xmlns="http://www.w3.org/2000/svg" p-id="28388" data-spm-anchor-id="a313x.search_index.0.i30.7b533a81PMNg8Y" xmlns:xlink="http://www.w3.org/1999/xlink" width="200" height="200"><path d="M512 512m-448 0a448 448 0 1 0 896 0 448 448 0 1 0-896 0Z" fill="#11dbbe" p-id="28389" data-spm-anchor-id="a313x.search_index.0.i14.7b533a81PMNg8Y" class=""></path><path d="M537.2 243.8c-9.6-4.4-20.7-3-28.9 3.7L352.9 377l-123.9-0.4c-7 0-14.1 3-19.2 7.8-5.2 5.2-8.1 11.8-8.1 19.2l-0.8 216.4c0 7 3 14.1 7.8 19.2 5.2 5.2 11.8 8.1 19.2 8.1h125.4l154.6 129.1c4.8 4.1 11.1 6.3 17.4 6.3 4.1 0 7.8-0.7 11.5-2.6 9.6-4.4 15.5-14.1 15.5-24.4V268.2c0.4-10.4-5.5-20-15.1-24.4z m104.6 135c-13.3-6.3-29.2-0.7-35.5 12.6s-0.7 29.6 12.2 36.3c1.8 0.7 42.2 21.8 42.2 81.7 0 64-37.7 85.1-39.2 85.8-13.3 6.7-18.9 22.9-12.2 36.3 4.8 9.6 14.4 14.8 24.4 14.8 4.1 0 8.1-0.7 12.2-3 3-1.5 69.2-35.5 69.2-134.3 0-94.7-70.3-128.7-73.3-130.2z m84.4-79.2c-12.6-8.1-28.9-4.4-37 8.1-8.1 12.6-4.4 29.2 7.8 37.4 3 1.8 72.1 49.2 72.1 166.5 0 117.6-66.6 165-69.2 166.8-12.6 8.1-15.9 25.2-7.4 37.4 5.2 7.8 13.7 12.2 22.6 12.2 5.2 0 10.4-1.5 14.8-4.4 3.7-2.6 93.2-63.6 93.2-211.6 0-148.7-92.9-210.1-96.9-212.4z" fill="#f2efe4" p-id="28390" data-spm-anchor-id="a313x.search_index.0.i10.7b533a81PMNg8Y" class=""></path></svg>