<?xml version="1.0" standalone="no"?><!DOCTYPE svg PUBLIC "-//W3C//DTD SVG 1.1//EN" "http://www.w3.org/Graphics/SVG/1.1/DTD/svg11.dtd"><svg t="1744189102249" class="icon" viewBox="0 0 1024 1024" version="1.1" xmlns="http://www.w3.org/2000/svg" p-id="10336" xmlns:xlink="http://www.w3.org/1999/xlink" width="200" height="200"><path d="M745.24 421.749s-5.385-5.688-9.262-5.688h-58.886V536.42h128.187c0-6.018-4.869-13.846-9.357-20.451l-50.682-94.22zM509.822 15.545c-274.376 0-496.803 222.427-496.803 496.803s222.427 496.803 496.803 496.803 496.803-222.426 496.803-496.803S784.2 15.545 509.822 15.545z m-133.627 737.52c-33.241 0-60.18-26.938-60.18-60.179 0-33.24 26.938-60.179 60.18-60.179 33.24 0 60.179 26.938 60.179 60.18 0 33.24-26.938 60.178-60.18 60.178z m337.004 0c-33.24 0-60.178-26.938-60.178-60.179 0-33.24 26.938-60.179 60.178-60.179 33.241 0 60.18 26.938 60.18 60.18 0 33.24-26.94 60.178-60.18 60.178z m132.395-96.286c0 13.259-10.814 24.071-24.072 24.071h-23.93c-5.902-41.469-41.304-73.577-84.393-73.577-43.066 0-78.469 32.087-84.393 73.553l-168.218 0.024c-5.903-41.469-41.304-73.577-84.393-73.577s-78.49 32.11-84.393 73.577h-48.003c-13.259 0-24.07-10.814-24.07-24.071V295.703c0-13.26 10.813-24.071 24.07-24.071h385.148c13.259 0 24.07 10.813 24.07 24.07v72.216h84.252c17.679 0 25.108 10.814 36.108 24.071l53.786 95.818s18.43 25.81 18.43 48.613v120.359z" fill="#c1ab96" p-id="10337"></path></svg>